# xmcd
# Copyright (c) 1998 CDDB Inc.
#
# Track frame offsets:
#	150
#	13268
#	29787
#	43655
#	57597
#	73654
#	87067
#	102536
#	129158
#	141775
#	157979
#	179979
#	192805
#	205412
#	220996
#	232536
#	245834
#	256088
#	273880
#	294122
#	313917
#
# Disc length: 4380 seconds
#
# Revision: 0
# Processed by: cddbd v1.4PL0 Copyright (c) Steve Scherf et al.
# Submitted via: audiograbber 1.70
#
DISCID=3b111a15
DTITLE=Золотая коллекция - Шансон часть II
DYEAR=1900
DGENRE=
TTITLE0=А. Немец - Соловей на заре
TTITLE1=Гарик кричевский - Днепровская делюга
TTITLE2=Е. Назарова - Алёша-шай
TTITLE3=Иван Кучин - Вор и судья
TTITLE4=К. Кратов - За нашим
TTITLE5=В. Ченяков - Полоса
TTITLE6=А. Заборский - Восемь пуль
TTITLE7=Г. Астронелли - Воровская любовь
TTITLE8=А. Меньшиков - Госпожа удача
TTITLE9=Колыма - Москава бандитская
TTITLE10=Катя Огонёк - Хакинск
TTITLE11=Михаил Круг - Пусти меня, мама
TTITLE12=С. Колесниченко - Канкан
TTITLE13=А. Полотно - Лёнька Пантелеев
TTITLE14=В. Токарев - В шумном балагане
TTITLE15=Михаил Шуфутинский - Ах, эти ночи
TTITLE16=Трофим - Минеты
TTITLE17=Юстина - Киллер Вася
TTITLE18=С. Русских - Лагеря, лагеря
TTITLE19=Слава Медяник - Как-то раз на малину
TTITLE20=Петлюра - Конопля
EXTD=
EXTT0=
EXTT1=
EXTT2=
EXTT3=
EXTT4=
EXTT5=
EXTT6=
EXTT7=
EXTT8=
EXTT9=
EXTT10=
EXTT11=
EXTT12=
EXTT13=
EXTT14=
EXTT15=
EXTT16=
EXTT17=
EXTT18=
EXTT19=
EXTT20=
PLAYORDER=
